<?xml version="1.0" encoding="UTF-8"?>
<svg width="48px" height="48px" viewBox="0 0 48 48" version="1.1" xmlns="http://www.w3.org/2000/svg" xmlns:xlink="http://www.w3.org/1999/xlink">
    <title>编组 2</title>
    <g id="首页" stroke="none" stroke-width="1" fill="none" fill-rule="evenodd">
        <g id="销方-首页" transform="translate(-443.000000, -401.000000)">
            <g id="编组-2" transform="translate(443.000000, 401.000000)">
                <circle id="椭圆形" fill="#00C8F4" cx="24" cy="24" r="24"></circle>
                <g id="编组" transform="translate(10.000000, 11.000000)" fill="#FFFFFF">
                    <path d="M26.7128818,7.28787345 C26.5354803,6.97361005 26.1343344,6.8733558 25.8311453,7.06522388 C25.8106253,7.07821627 25.7893521,7.09000155 25.7675142,7.10051617 L10.7831709,14.3104994 C10.0278809,14.6739687 10.2835976,15.821937 11.1198699,15.821937 L17.2371796,15.821937 L17.2371796,14.2336251 L14.5977433,14.2336251 L25.7598584,8.86278004 C26.1789829,9.7661801 26.4311855,10.7057937 26.4311855,11.8525231 C26.4311855,14.5687907 25.2131579,17.1454774 23.0014747,19.1079003 C20.7435113,21.111397 17.6823778,22.2682917 14.3806194,22.3661634 L13.978344,22.3661634 L13.6237919,22.3646387 L13.389411,22.6357317 C13.3739739,22.6534573 11.9984687,24.2045074 9.64333305,25.1042226 C10.1573394,23.0503765 9.5739287,21.8761692 9.49486045,21.7306481 L9.34692124,21.4582208 L8.44529218,21.153932 C6.35139548,20.3819171 5.0826952,19.5440825 4.02826361,18.192302 C3.77254685,17.8645062 3.31181741,17.789379 2.97019237,18.0236551 C2.59402203,18.2816287 2.51096899,18.8093294 2.79210055,19.1706704 C4.03184051,20.7640967 5.53796517,21.7736595 7.91898629,22.6502171 L8.200714,22.7456112 C8.30855431,23.1787121 8.41090377,24.1380207 7.83452132,25.6045409 C7.69386142,25.9624829 7.76285788,26.3644846 8.0145271,26.6537162 C8.20921697,26.8774141 8.48357125,27 8.76849934,27 C8.85277605,27 8.93799406,26.989263 9.02230215,26.9672808 C11.8171452,26.2375785 13.6636398,24.6043173 14.3124701,23.9544754 L14.392009,23.9544754 L14.4144117,23.9541577 C18.0843394,23.8479949 21.5011546,22.5510747 24.0354803,20.3023744 C26.5920517,18.0339473 28,15.0330543 28,11.8525231 C28,10.2581756 27.6220098,8.89794526 26.7128818,7.28787345" id="Fill-1"></path>
                    <path d="M16.0285093,6.69779153 L9.92442917,6.69779153 L9.92442917,8.31263553 L12.5581886,8.31263553 L1.64159512,13.6646807 C1.57772591,13.119477 1.5654217,12.5568654 1.5654217,12.0911767 C1.5654217,10.7131657 1.88871259,9.36822675 2.52630884,8.09366268 C3.14847004,6.84997443 4.04041602,5.72701192 5.1773818,4.75594163 C6.32486721,3.77586052 7.65848126,3.00457873 9.14115477,2.46347681 C10.684097,1.90034841 12.3159239,1.61484399 13.9913634,1.61484399 C17.2980037,1.61484399 20.1710534,2.57034718 22.3510284,4.38623925 C22.6714076,4.65307607 23.1372771,4.61829233 23.4169553,4.30659515 L23.4169553,4.30656285 C23.7256252,3.96263337 23.6854878,3.4220805 23.3320155,3.12762984 C20.871924,1.07823133 17.6619955,0 13.9913634,0 C12.1376224,0 10.3300925,0.31663861 8.61905532,0.941066485 C6.96246347,1.54566408 5.46861285,2.41067141 4.17904976,3.5120919 C2.87871658,4.62271701 1.8546177,5.91501206 1.13521251,7.35312752 C0.381931586,8.85887266 0,10.4529821 0,12.0911767 C0,13.0454849 0.0475262027,14.1945433 0.356227361,15.1788553 C0.493671387,15.6169625 0.991412869,15.809355 1.37847904,15.5799825 L1.37910521,15.581339 L16.3644801,8.23447708 C17.118168,7.86496848 16.862973,6.69779153 16.0285093,6.69779153" id="Fill-3"></path>
                </g>
            </g>
        </g>
    </g>
</svg>