<?xml version="1.0" encoding="UTF-8"?>
<svg width="48px" height="48px" viewBox="0 0 48 48" version="1.1" xmlns="http://www.w3.org/2000/svg" xmlns:xlink="http://www.w3.org/1999/xlink">
    <title>编组 3</title>
    <g id="首页" stroke="none" stroke-width="1" fill="none" fill-rule="evenodd">
        <g id="销方-首页" transform="translate(-443.000000, -495.000000)">
            <g id="编组-3" transform="translate(443.000000, 495.000000)">
                <circle id="椭圆形备份" fill="#A9C87D" cx="24" cy="24" r="24"></circle>
                <g id="编组" transform="translate(10.000000, 10.000000)" fill="#FFFFFF">
                    <path d="M21.8776099,25.633612 C22.3292619,26.080687 22.9411915,26.3368101 23.5588386,26.3368101 C24.1215915,26.3368101 24.640635,26.127269 25.0203338,25.746771 L25.8478416,24.9194792 C26.6802234,24.085689 26.628016,22.6737631 25.7331165,21.7659603 L14.7968349,11.6402271 L16.819177,9.61464305 L17.2478964,9.72099129 C17.442198,9.76919791 17.6378742,9.79366051 17.8295201,9.79366051 C18.4764734,9.79366051 19.0845601,9.5411303 19.5417421,9.08262068 C20.4814443,8.14145127 20.5097194,6.63789213 19.6051034,5.73055795 L16.0993333,2.22034752 C15.6765189,1.79551692 15.1044556,1.56210691 14.487527,1.56210691 C13.8372307,1.56210691 13.2230828,1.81813623 12.758215,2.28311297 C12.1609697,2.88155613 11.9161166,3.7630843 12.1196974,4.58306546 L12.2259556,5.01102027 L5.10859471,12.1411948 L4.67956286,12.0344716 C4.49116627,11.9876397 4.29558374,11.9638644 4.09828283,11.9638644 C3.45142328,11.9638644 2.84339905,12.2163634 2.38627955,12.6748417 C1.4462649,13.6161674 1.41786482,15.118633 2.3224809,16.0245301 L5.82881333,19.5373023 C6.25253383,19.9616331 6.82484706,20.195418 7.44024469,20.195418 C8.09063472,20.195418 8.70450144,19.9389513 9.16877563,19.4732872 C9.766927,18.8751877 10.0115301,17.9937533 9.80794935,17.1721163 L9.70197236,16.7445051 L11.766774,14.6752758 L21.8776099,25.633612 Z M23.5588386,27.898917 C22.5249069,27.898917 21.5055032,27.4718682 20.7620084,26.7272431 L20.7406693,26.7049987 L11.7226274,16.9310519 L11.4084456,17.2459415 C11.4743063,17.7591873 11.4403137,18.2841489 11.3067177,18.7865225 C11.1270692,19.4621025 10.7700217,20.0812592 10.2742231,20.5770095 C9.51557533,21.3379742 8.50879393,21.7575249 7.44024469,21.7575249 C6.40712526,21.7575249 5.44224102,21.3609684 4.72324088,20.6409309 L1.2169397,17.1281898 C-0.295325698,15.6137584 -0.266894371,13.1209795 1.28045716,11.5714944 C2.03238764,10.8173404 3.03329531,10.4017575 4.09828283,10.4017575 C4.26830841,10.4017575 4.43780286,10.4125673 4.60551644,10.4339994 L10.5192012,4.50964643 C10.453403,3.99711916 10.4874268,3.4725949 10.6209916,2.97037753 C10.8006088,2.29507871 11.1574688,1.67567208 11.652955,1.17914078 C12.4134461,0.418582167 13.4199151,0 14.487527,0 C15.5231147,0 16.4884363,0.396837639 17.2056244,1.1174688 L20.7108945,4.62717936 C22.2227537,6.14361026 22.1941662,8.63704531 20.6475958,10.1859368 C19.8955715,10.9401845 18.8946014,11.3557674 17.8295201,11.3557674 C17.6608693,11.3557674 17.4911873,11.3445515 17.3216617,11.3223383 L17.0484085,11.5960195 L26.8180997,20.6416182 L26.8290973,20.6526467 C28.3405504,22.168609 28.3960696,24.5780026 26.9528829,26.0236076 L26.1254689,26.850837 C25.4512402,27.5264794 24.5394695,27.898917 23.5588386,27.898917 L23.5588386,27.898917 Z" id="Fill-1"></path>
                    <path d="M13.1690151,27.898917 L0.780443426,27.898917 C0.349420131,27.898917 0,27.5595206 0,27.1407942 C0,26.7220679 0.349420131,26.3826715 0.780443426,26.3826715 L13.1690151,26.3826715 C13.6000384,26.3826715 13.9494585,26.7220679 13.9494585,27.1407942 C13.9494585,27.5595206 13.6000384,27.898917 13.1690151,27.898917" id="Fill-3"></path>
                </g>
            </g>
        </g>
    </g>
</svg>