<?xml version="1.0" encoding="UTF-8"?>
<svg width="48px" height="48px" viewBox="0 0 48 48" version="1.1" xmlns="http://www.w3.org/2000/svg" xmlns:xlink="http://www.w3.org/1999/xlink">
    <title>编组 4</title>
    <defs>
        <polygon id="path-1" points="0 0 28 0 28 28 0 28"></polygon>
    </defs>
    <g id="首页" stroke="none" stroke-width="1" fill="none" fill-rule="evenodd">
        <g id="销方-首页" transform="translate(-443.000000, -674.000000)">
            <g id="编组-4" transform="translate(443.000000, 674.000000)">
                <circle id="椭圆形备份-2" fill="#FFBF00" cx="24" cy="24" r="24"></circle>
                <g id="编组" transform="translate(10.000000, 10.000000)">
                    <mask id="mask-2" fill="white">
                        <use xlink:href="#path-1"></use>
                    </mask>
                    <g id="Clip-2"></g>
                    <path d="M26.1814293,24.2893988 C26.1814293,25.3326614 25.3314043,26.1814313 24.28651,26.1814313 L3.71349001,26.1814313 C2.66865843,26.1814313 1.8185707,25.3313446 1.8185707,24.2864828 L1.8185707,20.5358417 C1.8185707,19.4909799 2.66865843,18.6409559 3.71349001,18.6409559 L6.20348955,18.6409559 L6.2034582,18.6457531 L24.4996277,18.6771078 L24.499659,18.6532469 C25.4445319,18.7595704 26.1814293,19.5630642 26.1814293,20.5358417 L26.1814293,24.2893988 Z M8.39386389,7.45829498 C8.39386389,5.95252013 8.97828353,4.53604327 10.0394195,3.46986036 C11.09927,2.4050257 12.5105122,1.81856866 14.0131533,1.81856866 C15.513286,1.81856866 16.924779,2.40527654 17.9876395,3.47061287 C19.0483052,4.53378574 19.6324427,5.9499804 19.6324427,7.45829498 C19.6324427,8.46857258 19.3629493,9.45928489 18.8519309,10.3251744 C18.4913523,10.9396938 18.0208755,11.4748234 17.4536696,11.9157635 L16.8785623,12.3628179 L18.9948455,16.8491014 L9.04522575,16.8320444 L11.1521653,12.3676465 L10.5768072,11.9205608 C10.0099148,11.4800282 9.53655338,10.9423276 9.17130286,10.3249549 C8.66269881,9.45884593 8.39386389,8.46756923 8.39386389,7.45829498 L8.39386389,7.45829498 Z M24.28651,16.8223872 L20.9929844,16.8223872 L19.1291376,12.8712332 C19.6340731,12.3926675 20.0666108,11.8484765 20.419288,11.2475023 C21.09426,10.1037166 21.4510134,8.79343792 21.4510134,7.45829498 C21.4510134,5.46501831 20.6782462,3.59270781 19.2750622,2.18623308 C17.8685545,0.7764034 15.9998164,0 14.0131533,0 C12.0231039,0 10.1541149,0.776685591 8.75046052,2.18698559 C7.34777813,3.59631359 6.57529319,5.46837325 6.57529319,7.45829498 C6.57529319,8.79105497 6.93069835,10.1007693 7.60460421,11.2483488 C7.96217283,11.8527407 8.39668581,12.3979351 8.90130783,12.8760932 L7.03887195,16.8223872 L3.71349001,16.8223872 C1.66587347,16.8223872 0,18.4882275 0,20.5358417 L0,24.2864828 C0,26.3341284 1.66587347,28 3.71349001,28 L24.28651,28 C26.3341265,28 28,26.3354453 28,24.2893988 L28,20.5358417 C28,18.4882275 26.3341265,16.8223872 24.28651,16.8223872 L24.28651,16.8223872 Z" id="Fill-1" fill="#FFFFFF" mask="url(#mask-2)"></path>
                </g>
            </g>
        </g>
    </g>
</svg>