<?xml version="1.0" encoding="utf-8"?>
<!-- Generator: Adobe Illustrator 21.0.0, SVG Export Plug-In . SVG Version: 6.00 Build 0)  -->
<svg version="1.1" id="图层_1" xmlns="http://www.w3.org/2000/svg" xmlns:xlink="http://www.w3.org/1999/xlink" x="0px" y="0px"
	 viewBox="0 0 200 200" style="enable-background:new 0 0 200 200;" xml:space="preserve">
<style type="text/css">
	.st0{fill:#DD3435;stroke:#D03635;stroke-width:6;stroke-miterlimit:10;}
</style>
<path class="st0" d="M128.2,79.3c-0.6,0-1.1-0.2-1.5-0.6c-0.8-0.8-0.8-2.2,0-3l0,0l14.4-14.4c0.8-0.8,2.2-0.8,3,0s0.8,2.2,0,3
	l-14.4,14.4C129.3,79.1,128.7,79.3,128.2,79.3L128.2,79.3z M142.6,139.4c-0.6,0-1.1-0.2-1.5-0.6l-14.4-14.4c-0.8-0.8-0.8-2.2,0-3
	l0,0c0.8-0.8,2.2-0.8,3,0l0,0l14.4,14.4c0.8,0.8,0.8,2.2,0,3l0,0C143.7,139.1,143.2,139.4,142.6,139.4L142.6,139.4z M155.8,102.1
	h-20.4c-1.2,0-2.1-1-2.1-2.1l0,0c0-1.2,1-2.1,2.1-2.1l0,0h20.4c1.2,0,2.1,1,2.1,2.1C157.9,101.2,157,102.1,155.8,102.1z M109.9,50.5
	c-2.5-1-5.6-0.6-7.6,1.1L71.5,76.5H54c-5.4,0-9.8,3.9-9.8,8.7v29.6c0,4.8,4.4,8.7,9.8,8.7h17.5l30.8,24.9c1.3,1.1,3,1.6,4.8,1.6
	c1,0,2-0.2,2.9-0.5c2.6-1,4.2-3.3,4.2-5.8V56.3C114.1,53.8,112.5,51.5,109.9,50.5L109.9,50.5z M107.1,143.8
	C107.1,143.8,107,143.8,107.1,143.8l-33-26.5H54c-1.6,0-2.8-1.1-2.8-2.5V85.2c0-1.4,1.3-2.5,2.8-2.5h20.1l32.8-26.5l0.2,0.1
	L107.1,143.8L107.1,143.8z M100,196c-13,0-25.5-2.5-37.4-7.5c-11.4-4.8-21.7-11.8-30.5-20.6s-15.7-19.1-20.6-30.5
	C6.5,125.5,4,113,4,100s2.5-25.5,7.5-37.4c4.8-11.4,11.8-21.7,20.6-30.5s19.1-15.7,30.5-20.6C74.5,6.5,87,4,100,4s25.5,2.5,37.4,7.5
	c11.4,4.8,21.7,11.8,30.5,20.6s15.7,19.1,20.6,30.5c5,11.8,7.5,24.4,7.5,37.4s-2.5,25.5-7.5,37.4c-4.8,11.4-11.8,21.7-20.6,30.5
	s-19.1,15.7-30.5,20.6C125.5,193.5,113,196,100,196L100,196z M100,7.7C49.1,7.7,7.7,49.1,7.7,100s41.4,92.3,92.3,92.3
	s92.3-41.4,92.3-92.3S150.9,7.7,100,7.7L100,7.7z"/>
</svg>
