<svg t="1587017547965" class="icon" viewBox="0 0 1024 1024" version="1.1" xmlns="http://www.w3.org/2000/svg" p-id="4568"
     width="128" height="128">
    <path d="M560.64 957.952c-13.824 13.824-32.256 26.112-50.176 23.04-17.92 3.072-34.304-10.752-48.128-23.04L37.888 532.48c-22.016-22.016-22.016-56.32 0-78.336 22.016-22.016 56.32-22.016 78.336 0l394.752 405.504 396.288-404.992c22.016-22.016 56.32-22.016 78.336 0 22.016 22.016 22.016 56.32 0 78.336l-424.96 424.96z"
          fill="#908c8c" p-id="4569"></path>
    <path d="M560.64 563.2c-13.824 13.824-32.256 26.112-50.176 23.04-17.92 3.072-34.304-10.752-48.128-23.04L37.888 137.728c-22.016-22.016-22.016-56.32 0-78.336 22.016-22.016 56.32-22.016 78.336 0l394.752 405.504 396.288-404.992c22.016-22.016 56.32-22.016 78.336 0 22.016 22.016 22.016 56.32 0 78.336l-424.96 424.96z"
          fill="#908c8c" p-id="4570"></path>
</svg>
