<svg t="1586846627023" class="icon" viewBox="0 0 1148 1024" version="1.1" xmlns="http://www.w3.org/2000/svg" p-id="9418" width="128" height="128"><path d="M1085.655257 64.395397a212.067263 212.067263 0 0 0-298.910686 0l-262.194847 262.194846-291.68166 291.538983a123.654381 123.654381 0 0 0 87.84217 211.734347 125.081162 125.081162 0 0 0 87.842169-36.050008L903.407723 298.910686l-52.315314-52.315315L356.09441 741.355572a48.986159 48.986159 0 0 1-35.384176 13.74466 51.839721 51.839721 0 0 1-35.384177-13.74466 50.650737 50.650737 0 0 1-14.267813-35.384176 51.839721 51.839721 0 0 1 14.267813-35.384177L842.436602 112.715724a136.542972 136.542972 0 0 1 93.073701-36.715839 137.208803 137.208803 0 0 1 97.02113 233.992136l-252.350056 252.350055-4.755938 4.755938-315.271111 314.65284a221.48402 221.48402 0 0 1-158.610523 65.536822 225.336329 225.336329 0 0 1-158.610523-65.536822 220.390154 220.390154 0 0 1-65.536822-158.610523 225.336329 225.336329 0 0 1 65.536822-158.610523L655.005096 52.410434l-52.315315-52.315315L90.617967 511.929137a298.054617 298.054617 0 1 0 420.805369 422.137032l445.726484-445.726484 4.755937-4.755937 121.276412-121.276412a209.689294 209.689294 0 0 0 61.827191-149.431564 196.610465 196.610465 0 0 0-59.354103-148.480375z" p-id="9419"></path></svg>
