<?xml version="1.0" standalone="no"?><!DOCTYPE svg PUBLIC "-//W3C//DTD SVG 1.1//EN" "http://www.w3.org/Graphics/SVG/1.1/DTD/svg11.dtd"><svg t="1586936930397" class="icon" viewBox="0 0 1024 1024" version="1.1" xmlns="http://www.w3.org/2000/svg" p-id="23064" xmlns:xlink="http://www.w3.org/1999/xlink" width="128" height="128"><defs><style type="text/css"></style></defs><path d="M512 0C229.376 0 0 229.376 0 512S229.376 1024 512 1024s512-229.376 512-512S794.624 0 512 0z m284.964571 370.980571L459.922286 708.022857c-7.606857 7.606857-17.554286 11.702857-27.501715 11.702857s-19.894857-4.096-27.501714-11.702857L227.035429 530.724571a38.853486 38.853486 0 0 1 0-55.003428c15.213714-15.213714 39.789714-15.213714 55.003428 0l149.796572 149.796571L741.376 315.977143c15.213714-15.213714 39.789714-15.213714 55.003429 0 15.798857 15.213714 15.798857 39.789714 0.585142 55.003428z" fill="#52c41a" p-id="23065"></path></svg>